<?xml version="1.0" encoding="UTF-8"?>
<!DOCTYPE svg PUBLIC "-//W3C//DTD SVG 1.1//EN" "http://www.w3.org/Graphics/SVG/1.1/DTD/svg11.dtd">
<!-- Creator: CorelDRAW 2019 (64-Bit) -->
<svg xmlns="http://www.w3.org/2000/svg" xml:space="preserve" width="210mm" height="846.667mm" version="1.1" style="shape-rendering:geometricPrecision; text-rendering:geometricPrecision; image-rendering:optimizeQuality; fill-rule:evenodd; clip-rule:evenodd"
viewBox="0 0 21000 84666.66"
 xmlns:xlink="http://www.w3.org/1999/xlink"
 xmlns:xodm="http://www.corel.com/coreldraw/odm/2003">
 <defs>
  <style type="text/css">
   <![CDATA[
    .fil0 {fill:#001445;fill-rule:nonzero}
   ]]>
  </style>
 </defs>
 <g id="Layer_x0020_1">
  <metadata id="CorelCorpID_0Corel-Layer"/>
  <path id="clients.svg" class="fil0" d="M11246.21 41831.1l-362.72 0 0 -111.6c-0.09,-77.02 -62.49,-139.42 -139.51,-139.51l-502.22 0c-77.02,0.09 -139.41,62.49 -139.51,139.51l0 111.6 -362.72 0c-46.22,0 -83.7,37.48 -83.7,83.71l0 621.08c0.17,35.39 22.48,66.88 55.8,78.77l0 388.31c0,46.22 37.48,83.7 83.7,83.7l1395.08 0c46.22,0 83.7,-37.48 83.7,-83.7l0 -388.28c33.33,-11.91 55.64,-43.41 55.8,-78.8l0 -621.08c0,-46.23 -37.47,-83.71 -83.7,-83.71l0 0zm-1088.16 -111.6c0,-46.23 37.48,-83.71 83.71,-83.71l502.22 0c46.23,0 83.71,37.48 83.71,83.71l0 111.6 -55.8 0 0 -111.6c0,-15.41 -12.5,-27.9 -27.91,-27.9l-502.22 0c-15.41,0 -27.9,12.49 -27.9,27.9l0 111.6 -55.81 0 0 -111.6zm558.03 111.6l-446.42 0 0 -83.7 446.42 0 0 83.7zm502.23 1171.87c0,15.4 -12.49,27.9 -27.9,27.9l-1395.08 0c-15.4,0 -27.9,-12.5 -27.9,-27.9l0 -378.72 613.84 84.66 0 70.84c0,46.23 37.48,83.71 83.7,83.71l55.8 0c46.23,0 83.71,-37.48 83.71,-83.71l0 -70.84 613.83 -84.66 0 378.72zm-669.64 -223.22c0,15.41 -12.49,27.9 -27.9,27.9l-55.8 0.01c-15.41,0 -27.9,-12.5 -27.9,-27.91l0 -167.4c0,-15.41 12.49,-27.91 27.9,-27.91l55.8 0c15.41,0 27.9,12.5 27.9,27.9l0 167.41zm725.44 -243.86c0.02,13.91 -10.22,25.71 -23.99,27.65l-7.74 1.07 -637.9 87.97 0 -40.23c0,-46.23 -37.48,-83.71 -83.71,-83.71l-55.8 0c-46.23,0 -83.71,37.48 -83.71,83.71l0 40.23 -645.61 -89.04c-13.77,-1.93 -24.03,-13.73 -24.02,-27.65l0 -621.08c0,-15.41 12.49,-27.9 27.9,-27.9l1506.68 0c15.41,0 27.9,12.49 27.9,27.9l0 621.08zm0 0z"/>
 </g>
 <g id="Layer_x0020_1_0">
  <metadata id="CorelCorpID_1Corel-Layer"/>
 </g>
</svg>
