<?xml version="1.0" encoding="UTF-8"?>
<!DOCTYPE svg PUBLIC "-//W3C//DTD SVG 1.1//EN" "http://www.w3.org/Graphics/SVG/1.1/DTD/svg11.dtd">
<!-- Creator: CorelDRAW 2019 (64-Bit) -->
<svg xmlns="http://www.w3.org/2000/svg" xml:space="preserve" width="210mm" height="846.667mm" version="1.1" style="shape-rendering:geometricPrecision; text-rendering:geometricPrecision; image-rendering:optimizeQuality; fill-rule:evenodd; clip-rule:evenodd"
viewBox="0 0 21000 84666.66"
 xmlns:xlink="http://www.w3.org/1999/xlink"
 xmlns:xodm="http://www.corel.com/coreldraw/odm/2003">
 <defs>
  <style type="text/css">
   <![CDATA[
    .fil0 {fill:#001445;fill-rule:nonzero}
   ]]>
  </style>
 </defs>
 <g id="Layer_x0020_1">
  <metadata id="CorelCorpID_0Corel-Layer"/>
  <g id="customer.svg">
   <path class="fil0" d="M10492.87 41537.83c-439.34,0 -795.5,356.16 -795.5,795.5 0,439.34 356.16,795.5 795.5,795.5 439.34,0 795.5,-356.16 795.5,-795.5 -0.49,-439.13 -356.37,-795.01 -795.5,-795.5zm0 1537.97c-410.05,0 -742.47,-332.42 -742.47,-742.47 0,-410.05 332.42,-742.47 742.47,-742.47 410.05,0 742.47,332.42 742.47,742.47 -0.47,409.86 -332.61,742 -742.47,742.47zm0 0z"/>
   <path class="fil0" d="M10970.17 42333.33l-954.6 0c-14.64,0 -26.52,11.87 -26.52,26.52 0.12,155.38 72.06,301.99 194.9,397.14 0.98,0.84 2.01,1.62 3.1,2.3 180.28,139.27 431.89,139.15 612.03,-0.28 1.24,-0.79 2.41,-1.68 3.51,-2.66 122.35,-95.19 193.98,-241.48 194.1,-396.5 0,-14.65 -11.88,-26.52 -26.52,-26.52l0 0zm-742.01 390.62c4.85,-113.66 121.52,-205 264.71,-205 143.19,0 259.86,91.34 264.71,205 -157.54,115.57 -371.88,115.57 -529.42,0zm577.6 -40.13c-26.88,-123.69 -156.81,-217.91 -312.89,-217.91 -156.08,0 -286.01,94.22 -312.89,217.91 -81.49,-78.37 -130.46,-184.58 -137.13,-297.46l900.04 0c-6.67,112.88 -55.64,219.09 -137.13,297.46l0 0zm0 0z"/>
   <path class="fil0" d="M10254.22 42174.23c73.22,0 132.58,-59.36 132.58,-132.58 0,-73.22 -59.36,-132.59 -132.58,-132.59 -73.22,0 -132.58,59.37 -132.58,132.59 0.09,73.19 59.39,132.49 132.58,132.58zm0 -212.13c43.93,0 79.55,35.62 79.55,79.55 0,43.93 -35.62,79.55 -79.55,79.55 -43.93,0 -79.55,-35.62 -79.55,-79.55 0,-43.93 35.62,-79.55 79.55,-79.55zm0 0z"/>
   <path class="fil0" d="M10731.52 42174.23c73.22,0 132.58,-59.36 132.58,-132.58 0,-73.22 -59.36,-132.59 -132.58,-132.59 -73.22,0 -132.58,59.37 -132.58,132.59 0.09,73.19 59.39,132.49 132.58,132.58zm0 -212.13c43.93,0 79.55,35.62 79.55,79.55 0,43.93 -35.62,79.55 -79.55,79.55 -43.93,0 -79.55,-35.62 -79.55,-79.55 0,-43.93 35.62,-79.55 79.55,-79.55zm0 0z"/>
  </g>
 </g>
 <g id="Layer_x0020_1_0">
  <metadata id="CorelCorpID_1Corel-Layer"/>
 </g>
</svg>
