<?xml version="1.0" encoding="UTF-8"?>
<!DOCTYPE svg PUBLIC "-//W3C//DTD SVG 1.1//EN" "http://www.w3.org/Graphics/SVG/1.1/DTD/svg11.dtd">
<!-- Creator: CorelDRAW 2019 (64-Bit) -->
<svg xmlns="http://www.w3.org/2000/svg" xml:space="preserve" width="210mm" height="846.667mm" version="1.1" style="shape-rendering:geometricPrecision; text-rendering:geometricPrecision; image-rendering:optimizeQuality; fill-rule:evenodd; clip-rule:evenodd"
viewBox="0 0 21000 84666.66"
 xmlns:xlink="http://www.w3.org/1999/xlink"
 xmlns:xodm="http://www.corel.com/coreldraw/odm/2003">
 <defs>
  <style type="text/css">
   <![CDATA[
    .fil0 {fill:#001445;fill-rule:nonzero}
   ]]>
  </style>
 </defs>
 <g id="Layer_x0020_1">
  <metadata id="CorelCorpID_0Corel-Layer"/>
  <g id="partners.svg">
   <path class="fil0" d="M10433.63 41311.85c162.9,0 294.95,-132.05 294.95,-294.95 0,-162.9 -132.05,-294.94 -294.95,-294.94 -162.89,0 -294.94,132.04 -294.94,294.94 0.18,162.82 132.13,294.77 294.94,294.95zm0 -524.35c126.71,0 229.4,102.7 229.4,229.4 0,126.7 -102.69,229.4 -229.4,229.4 -126.7,0 -229.4,-102.7 -229.4,-229.4 0.15,-126.64 102.77,-229.25 229.4,-229.4zm0 0z"/>
   <path class="fil0" d="M9745.43 41213.53c90.49,0 163.86,-73.37 163.86,-163.86 0,-90.49 -73.37,-163.85 -163.86,-163.85 -90.49,0 -163.86,73.36 -163.86,163.85 0.11,90.46 73.4,163.75 163.86,163.86zm0 -262.17c54.29,0 98.32,44.02 98.32,98.31 0,54.3 -44.03,98.32 -98.32,98.32 -54.29,0 -98.31,-44.02 -98.31,-98.32 0,-54.29 44.02,-98.31 98.31,-98.31zm0 0z"/>
   <path class="fil0" d="M11121.84 41213.53c90.49,0 163.85,-73.37 163.85,-163.86 0,-90.49 -73.36,-163.85 -163.85,-163.85 -90.49,0 -163.86,73.36 -163.86,163.85 0.11,90.46 73.4,163.75 163.86,163.86zm0 -262.17c54.29,0 98.31,44.02 98.31,98.31 0,54.3 -44.02,98.32 -98.31,98.32 -54.3,0 -98.32,-44.02 -98.32,-98.32 0,-54.29 44.02,-98.31 98.32,-98.31zm0 0z"/>
   <path class="fil0" d="M11252.92 41213.53c-7.09,0 -13.98,2.3 -19.66,6.56l-111.42 83.56 -111.42 -83.56c-5.68,-4.26 -12.58,-6.56 -19.67,-6.56 -53.94,-0.06 -104.38,26.69 -134.59,71.38 -49.72,-25.18 -104.62,-38.4 -160.35,-38.61 -8.69,0 -17.03,3.46 -23.17,9.6l-239.01 239.01 -239 -239.01c-6.14,-6.14 -14.48,-9.6 -23.17,-9.6 -55.73,0.21 -110.64,13.43 -160.35,38.61 -30.21,-44.69 -80.65,-71.44 -134.59,-71.38 -7.09,0 -13.99,2.3 -19.67,6.56l-111.42 83.56 -111.42 -83.56c-5.68,-4.26 -12.58,-6.56 -19.67,-6.56 -90.45,0.11 -163.74,73.4 -163.86,163.86l0 291.34c0.02,33.93 17.48,65.47 46.22,83.5l200.52 125.39c15.65,9.49 33.58,14.5 51.87,14.48 15.19,0.03 30.17,-3.46 43.75,-10.19l18.13 -9.08 0 150.17c-0.01,38.9 22.9,74.15 58.47,89.91l497.74 221.17c42.28,18.85 90.57,18.85 132.85,0l497.76 -221.2c35.57,-15.75 58.5,-51 58.5,-89.88l0 -183.03 21.7 10.77c27.6,13.76 60.06,13.76 87.66,0l196.63 -98.32c33.46,-16.53 54.6,-50.64 54.5,-87.96l0 -287.07c-0.11,-90.46 -73.4,-163.75 -163.86,-163.86l0 0zm-1489.36 609.56c-10.18,4.97 -22.19,4.44 -31.89,-1.41l-199.91 -125.02c-9.6,-6.09 -15.52,-16.57 -15.73,-27.93l0 -291.34c0,-50.34 38.02,-92.56 88.09,-97.79l121.65 91.23c11.64,8.75 27.68,8.75 39.33,0l121.64 -91.23c27.29,2.79 52.12,16.93 68.43,38.97 -2.2,1.63 -4.1,3.56 -6.26,5.24 -5.07,3.99 -9.83,8.2 -14.75,12.42 -6.29,5.48 -12.42,11.04 -18.28,16.9 -4.53,4.53 -8.82,9.15 -13.12,13.91 -5.5,6.11 -10.79,12.41 -15.86,18.91 -3.85,4.98 -7.63,9.82 -11.23,15.14 -4.75,6.78 -9.12,13.76 -13.38,20.83 -3.28,5.31 -6.35,10.63 -9.26,16.1 -3.94,7.44 -7.44,15.07 -10.85,22.93 -2.43,5.5 -4.99,10.94 -7.16,16.62 -3.28,8.23 -5.69,16.65 -8.25,25.14 -1.64,5.48 -3.51,10.8 -4.88,16.39 -2.36,9.49 -4,19.23 -5.57,28.96 -0.79,4.79 -1.94,9.47 -2.53,14.29 -1.84,14.74 -2.78,29.59 -2.82,44.44l0 192.75 -47.41 23.55zm1227.19 199.91c0,13.02 -7.73,24.8 -19.66,30.02l-497.74 221.24c-25.3,11.29 -54.2,11.29 -79.5,0l-497.67 -221.24c-11.93,-5.22 -19.66,-17 -19.66,-30.02l0 -416.21c-0.02,-25.2 3.17,-50.31 9.47,-74.71 33.06,-124.91 143.31,-213.93 272.37,-219.95l252.33 252.35c12.8,12.8 33.55,12.8 46.34,0l252.35 -252.35c157.34,7.51 281.13,137.14 281.37,294.66l0 416.21zm360.49 -358.54c0.03,12.53 -7.06,23.97 -18.29,29.51l-196.63 98.31c-9.12,4.55 -19.87,4.55 -29,0l-51.03 -25.57 0 -159.92c-0.03,-14.91 -0.97,-29.81 -2.81,-44.6 -0.59,-4.84 -1.75,-9.53 -2.53,-14.32 -1.6,-9.84 -3.28,-19.44 -5.57,-28.91 -1.37,-5.6 -3.28,-10.98 -4.91,-16.39 -2.53,-8.41 -5.09,-16.8 -8.2,-24.99 -2.19,-5.72 -4.78,-11.22 -7.24,-16.79 -3.29,-7.63 -6.82,-15.2 -10.76,-22.61 -2.91,-5.54 -6.16,-10.91 -9.36,-16.39 -4.19,-7 -8.56,-13.88 -13.1,-20.57 -3.68,-5.25 -7.51,-10.36 -11.45,-15.41 -4.99,-6.55 -10.16,-12.55 -15.6,-18.62 -4.32,-4.81 -8.75,-9.56 -13.34,-14.16 -5.76,-5.79 -11.83,-11.26 -18.02,-16.67 -4.88,-4.26 -9.83,-8.53 -14.95,-12.55 -2.13,-1.68 -4.03,-3.61 -6.22,-5.25 16.3,-22.03 41.12,-36.17 68.39,-38.96l121.55 91.23c11.65,8.75 27.68,8.75 39.33,0l121.65 -91.23c50.06,5.23 88.08,47.45 88.08,97.79l0.01 287.07zm0 0z"/>
  </g>
 </g>
 <g id="Layer_x0020_1_0">
  <metadata id="CorelCorpID_1Corel-Layer"/>
 </g>
</svg>
