<?xml version="1.0" encoding="UTF-8"?>
<!DOCTYPE svg PUBLIC "-//W3C//DTD SVG 1.1//EN" "http://www.w3.org/Graphics/SVG/1.1/DTD/svg11.dtd">
<!-- Creator: CorelDRAW 2019 (64-Bit) -->
<svg xmlns="http://www.w3.org/2000/svg" xml:space="preserve" width="210mm" height="846.667mm" version="1.1" style="shape-rendering:geometricPrecision; text-rendering:geometricPrecision; image-rendering:optimizeQuality; fill-rule:evenodd; clip-rule:evenodd"
viewBox="0 0 21000 84666.66"
 xmlns:xlink="http://www.w3.org/1999/xlink"
 xmlns:xodm="http://www.corel.com/coreldraw/odm/2003">
 <defs>
  <style type="text/css">
   <![CDATA[
    .fil1 {fill:#001445}
    .fil0 {fill:white}
   ]]>
  </style>
 </defs>
 <g id="Layer_x0020_1">
  <metadata id="CorelCorpID_0Corel-Layer"/>
  <g id="_2272631131696">
   <polygon class="fil0" points="8690.57,39432.33 8717.27,39432.33 8927.86,39239.37 9138.45,39432.33 9164.65,39432.33 9378.19,39236.66 9591.73,39432.33 9604.67,39432.33 9819.58,39235.41 10034.48,39432.33 10052.32,39432.33 10264.54,39237.86 10476.77,39432.33 10507.53,39432.33 10718.89,39238.66 10930.24,39432.33 10960.54,39432.33 11170.21,39240.2 11379.89,39432.33 11416.71,39432.33 11624.96,39241.5 11833.22,39432.33 11849.7,39432.33 12059.34,39240.23 12268.98,39432.33 12296.86,39432.33 12507.48,39239.33 12731.37,39432.33 12731.37,45227.33 12507.48,45427.33 12289.22,45227.33 12276.62,45227.33 12059.34,45426.43 11842.06,45227.33 11840.86,45227.33 11624.96,45425.16 11409.07,45227.33 11387.53,45227.33 11170.21,45426.46 10952.9,45227.33 10937.88,45227.33 10718.89,45428 10499.89,45227.33 10484.41,45227.33 10264.54,45428.8 10044.68,45227.33 10042.12,45227.33 9819.58,45431.25 9598.2,45228.4 9378.19,45430 9157.01,45227.33 9146.09,45227.33 8927.86,45427.29 8709.63,45227.33 8698.21,45227.33 8481.12,45426.26 8254.38,45227.33 8254.38,39432.33 8481.12,39240.4 "/>
   <circle class="fil1" cx="10492.88" cy="42433.33" r="1655.9"/>
  </g>
 </g>
 <g id="Layer_x0020_1_0">
  <metadata id="CorelCorpID_1Corel-Layer"/>
 </g>
</svg>
