<?xml version="1.0" encoding="UTF-8"?>
<!DOCTYPE svg PUBLIC "-//W3C//DTD SVG 1.1//EN" "http://www.w3.org/Graphics/SVG/1.1/DTD/svg11.dtd">
<!-- Creator: CorelDRAW 2019 (64-Bit) -->
<svg xmlns="http://www.w3.org/2000/svg" xml:space="preserve" width="210mm" height="846.667mm" version="1.1" style="shape-rendering:geometricPrecision; text-rendering:geometricPrecision; image-rendering:optimizeQuality; fill-rule:evenodd; clip-rule:evenodd"
viewBox="0 0 21000 84666.66"
 xmlns:xlink="http://www.w3.org/1999/xlink"
 xmlns:xodm="http://www.corel.com/coreldraw/odm/2003">
 <defs>
  <style type="text/css">
   <![CDATA[
    .fil0 {fill:#001445}
    .fil1 {fill:white;fill-rule:nonzero}
   ]]>
  </style>
 </defs>
 <g id="Layer_x0020_1">
  <metadata id="CorelCorpID_0Corel-Layer"/>
  <path class="fil0" d="M4738.81 57513.69l4.53 -5791.71c3441.28,2.32 6229.68,2594.68 6229.68,5791.71 0,3197.74 -2789.6,5790.39 -6231.66,5791.7l-2.55 -5791.7z"/>
  <g id="phone.svg">
   <g>
    <g>
     <path class="fil1" d="M6024.57 58140.61c245.44,0 486.43,-38.39 714.8,-113.86 111.91,-38.17 249.47,-3.15 317.77,66.99l450.75 340.28c522.75,-279.05 844.76,-600.95 1119.99,-1119.77l-330.26 -439.01c-85.81,-85.69 -116.58,-210.87 -79.71,-328.31 75.79,-229.57 114.3,-470.45 114.3,-715.99 -0.01,-177.38 144.29,-321.69 321.67,-321.69l736.21 0c177.37,0 321.68,144.31 321.68,321.68 0,2033.14 -1654.06,3687.18 -3687.2,3687.18 -177.37,0 -321.68,-144.31 -321.68,-321.68l0 -734.15c0.02,-177.36 144.33,-321.67 321.68,-321.67z"/>
    </g>
   </g>
   <g>
   </g>
   <g>
   </g>
   <g>
   </g>
   <g>
   </g>
   <g>
   </g>
   <g>
   </g>
   <g>
   </g>
   <g>
   </g>
   <g>
   </g>
   <g>
   </g>
   <g>
   </g>
   <g>
   </g>
   <g>
   </g>
   <g>
   </g>
   <g>
   </g>
  </g>
 </g>
 <g id="Layer_x0020_1_0">
  <metadata id="CorelCorpID_1Corel-Layer"/>
 </g>
</svg>
